<svg width="21" height="20" viewBox="0 0 21 20" fill="none" xmlns="http://www.w3.org/2000/svg">
<path d="M15 0C18.038 0 20.5 2.7027 20.5 6.48649C20.5 14.0541 13 18.3784 10.5 20C8 18.3784 0.5 14.0541 0.5 6.48649C0.5 2.7027 3 0 6 0C7.86 0 9.5 1.08108 10.5 2.16216C11.5 1.08108 13.14 0 15 0ZM11.434 16.8692C12.315 16.2681 13.11 15.6703 13.854 15.0303C16.835 12.4681 18.5 9.66811 18.5 6.48649C18.5 3.93514 16.963 2.16216 15 2.16216C13.924 2.16216 12.76 2.77838 11.914 3.69081L10.5 5.21946L9.086 3.69081C8.24 2.77838 7.076 2.16216 6 2.16216C4.06 2.16216 2.5 3.95243 2.5 6.48649C2.5 9.66919 4.166 12.4681 7.145 15.0303C7.89 15.6703 8.685 16.2681 9.566 16.8681C9.865 17.0724 10.161 17.2681 10.5 17.4865C10.839 17.2681 11.135 17.0724 11.434 16.8692Z" fill="#BCBCBC"/>
</svg>
